<svg id="visual" viewBox="0 0 960 540" width="960" height="540" xmlns="http://www.w3.org/2000/svg" xmlns:xlink="http://www.w3.org/1999/xlink" version="1.1"><rect x="0" y="0" width="960" height="540" fill="#ececec"></rect><path d="M0 130L26.7 138.7C53.3 147.3 106.7 164.7 160 163C213.3 161.3 266.7 140.7 320 136C373.3 131.3 426.7 142.7 480 150.3C533.3 158 586.7 162 640 162C693.3 162 746.7 158 800 150.3C853.3 142.7 906.7 131.3 933.3 125.7L960 120L960 0L933.3 0C906.7 0 853.3 0 800 0C746.7 0 693.3 0 640 0C586.7 0 533.3 0 480 0C426.7 0 373.3 0 320 0C266.7 0 213.3 0 160 0C106.7 0 53.3 0 26.7 0L0 0Z" fill="#f7770f"></path><path d="M0 152L26.7 151.5C53.3 151 106.7 150 160 140.2C213.3 130.3 266.7 111.7 320 112.7C373.3 113.7 426.7 134.3 480 135.8C533.3 137.3 586.7 119.7 640 115.8C693.3 112 746.7 122 800 125.5C853.3 129 906.7 126 933.3 124.5L960 123L960 0L933.3 0C906.7 0 853.3 0 800 0C746.7 0 693.3 0 640 0C586.7 0 533.3 0 480 0C426.7 0 373.3 0 320 0C266.7 0 213.3 0 160 0C106.7 0 53.3 0 26.7 0L0 0Z" fill="#c25f14"></path><path d="M0 119L26.7 115.7C53.3 112.3 106.7 105.7 160 101.2C213.3 96.7 266.7 94.3 320 99C373.3 103.7 426.7 115.3 480 112.8C533.3 110.3 586.7 93.7 640 93.8C693.3 94 746.7 111 800 116.3C853.3 121.7 906.7 115.3 933.3 112.2L960 109L960 0L933.3 0C906.7 0 853.3 0 800 0C746.7 0 693.3 0 640 0C586.7 0 533.3 0 480 0C426.7 0 373.3 0 320 0C266.7 0 213.3 0 160 0C106.7 0 53.3 0 26.7 0L0 0Z" fill="#8f4815"></path><path d="M0 60L26.7 65.5C53.3 71 106.7 82 160 80.3C213.3 78.7 266.7 64.3 320 64C373.3 63.7 426.7 77.3 480 82.8C533.3 88.3 586.7 85.7 640 85.2C693.3 84.7 746.7 86.3 800 88C853.3 89.7 906.7 91.3 933.3 92.2L960 93L960 0L933.3 0C906.7 0 853.3 0 800 0C746.7 0 693.3 0 640 0C586.7 0 533.3 0 480 0C426.7 0 373.3 0 320 0C266.7 0 213.3 0 160 0C106.7 0 53.3 0 26.7 0L0 0Z" fill="#5f3213"></path><path d="M0 64L26.7 64.7C53.3 65.3 106.7 66.7 160 63.8C213.3 61 266.7 54 320 48C373.3 42 426.7 37 480 38C533.3 39 586.7 46 640 47.2C693.3 48.3 746.7 43.7 800 43.3C853.3 43 906.7 47 933.3 49L960 51L960 0L933.3 0C906.7 0 853.3 0 800 0C746.7 0 693.3 0 640 0C586.7 0 533.3 0 480 0C426.7 0 373.3 0 320 0C266.7 0 213.3 0 160 0C106.7 0 53.3 0 26.7 0L0 0Z" fill="#331d0e"></path><path d="M0 41L26.7 37.2C53.3 33.3 106.7 25.7 160 24.3C213.3 23 266.7 28 320 27.7C373.3 27.3 426.7 21.7 480 19.7C533.3 17.7 586.7 19.3 640 24.5C693.3 29.7 746.7 38.3 800 41C853.3 43.7 906.7 40.3 933.3 38.7L960 37L960 0L933.3 0C906.7 0 853.3 0 800 0C746.7 0 693.3 0 640 0C586.7 0 533.3 0 480 0C426.7 0 373.3 0 320 0C266.7 0 213.3 0 160 0C106.7 0 53.3 0 26.7 0L0 0Z" fill="#020202"></path></svg>