<svg id="visual" viewBox="0 0 960 200" width="960" height="200" xmlns="http://www.w3.org/2000/svg" xmlns:xlink="http://www.w3.org/1999/xlink" version="1.1"><rect x="0" y="0" width="960" height="200" fill="#fff"></rect><path d="M0 83L22.8 85.3C45.7 87.7 91.3 92.3 137 92.2C182.7 92 228.3 87 274 83.8C319.7 80.7 365.3 79.3 411.2 82.8C457 86.3 503 94.7 548.8 96.7C594.7 98.7 640.3 94.3 686 90.7C731.7 87 777.3 84 823 87.2C868.7 90.3 914.3 99.7 937.2 104.3L960 109L960 201L937.2 201C914.3 201 868.7 201 823 201C777.3 201 731.7 201 686 201C640.3 201 594.7 201 548.8 201C503 201 457 201 411.2 201C365.3 201 319.7 201 274 201C228.3 201 182.7 201 137 201C91.3 201 45.7 201 22.8 201L0 201Z" fill="#ee7f00"></path><path d="M0 128L22.8 128.5C45.7 129 91.3 130 137 129.2C182.7 128.3 228.3 125.7 274 120.8C319.7 116 365.3 109 411.2 107.7C457 106.3 503 110.7 548.8 115.5C594.7 120.3 640.3 125.7 686 126.7C731.7 127.7 777.3 124.3 823 121.8C868.7 119.3 914.3 117.7 937.2 116.8L960 116L960 201L937.2 201C914.3 201 868.7 201 823 201C777.3 201 731.7 201 686 201C640.3 201 594.7 201 548.8 201C503 201 457 201 411.2 201C365.3 201 319.7 201 274 201C228.3 201 182.7 201 137 201C91.3 201 45.7 201 22.8 201L0 201Z" fill="#bd5402"></path><path d="M0 142L22.8 139.3C45.7 136.7 91.3 131.3 137 129.5C182.7 127.7 228.3 129.3 274 130.3C319.7 131.3 365.3 131.7 411.2 130.2C457 128.7 503 125.3 548.8 125C594.7 124.7 640.3 127.3 686 130.5C731.7 133.7 777.3 137.3 823 139.7C868.7 142 914.3 143 937.2 143.5L960 144L960 201L937.2 201C914.3 201 868.7 201 823 201C777.3 201 731.7 201 686 201C640.3 201 594.7 201 548.8 201C503 201 457 201 411.2 201C365.3 201 319.7 201 274 201C228.3 201 182.7 201 137 201C91.3 201 45.7 201 22.8 201L0 201Z" fill="#8a2d00"></path><path d="M0 168L22.8 164C45.7 160 91.3 152 137 152C182.7 152 228.3 160 274 160.2C319.7 160.3 365.3 152.7 411.2 151.8C457 151 503 157 548.8 158.5C594.7 160 640.3 157 686 157.7C731.7 158.3 777.3 162.7 823 161.8C868.7 161 914.3 155 937.2 152L960 149L960 201L937.2 201C914.3 201 868.7 201 823 201C777.3 201 731.7 201 686 201C640.3 201 594.7 201 548.8 201C503 201 457 201 411.2 201C365.3 201 319.7 201 274 201C228.3 201 182.7 201 137 201C91.3 201 45.7 201 22.8 201L0 201Z" fill="#5d0000"></path><path d="M0 164L22.8 164.8C45.7 165.7 91.3 167.3 137 170.7C182.7 174 228.3 179 274 182C319.7 185 365.3 186 411.2 183C457 180 503 173 548.8 169.3C594.7 165.7 640.3 165.3 686 165.8C731.7 166.3 777.3 167.7 823 170.8C868.7 174 914.3 179 937.2 181.5L960 184L960 201L937.2 201C914.3 201 868.7 201 823 201C777.3 201 731.7 201 686 201C640.3 201 594.7 201 548.8 201C503 201 457 201 411.2 201C365.3 201 319.7 201 274 201C228.3 201 182.7 201 137 201C91.3 201 45.7 201 22.8 201L0 201Z" fill="#000000"></path></svg>